<svg width="393" height="396" viewBox="0 0 393 396" fill="none" xmlns="http://www.w3.org/2000/svg">
<path d="M318.44 108.765L115.543 236.324L111.822 242.864C132.428 235.28 133.11 244.85 145.713 243.823C134.622 254.025 126.984 276.583 114.926 282.044C105.11 286.498 86.8614 295.209 80.4295 298.29L66.3072 323.287L72.07 330.42L330.433 185.049L322.407 111.971L318.44 108.765Z" fill="#001C18"/>
<path d="M299.236 282.268C288.641 276.282 286.504 252.471 278.001 241.539C290.966 242.987 299.055 233.605 321.323 245.34L319.414 232.121L104.258 126.995L45.328 188.743L42.6487 194.256L328.271 330.587L332.878 325.388L329.202 299.955C323.441 296.463 307.774 287.087 299.236 282.268Z" fill="#001C18"/>
<path d="M321.331 245.338L317.359 249.889C312.618 246.718 307.173 244.756 301.499 244.174C292.509 243.421 289.629 247.994 277.115 245.743C275.919 245.009 275.038 243.858 274.643 242.512C274.248 241.166 274.365 239.722 274.974 238.458L301.413 234.225L321.331 245.338Z" fill="#001C18"/>
<path d="M299.236 282.268C288.641 276.282 286.504 252.471 278.001 241.539C290.966 242.987 299.055 233.605 321.323 245.34L319.414 232.121L92.3823 123.931L45.328 188.743L332.899 325.357L329.224 299.923C323.441 296.463 307.774 287.087 299.236 282.268Z" fill="#004B40"/>
<path d="M207.26 178.667L128.454 228.215L196.373 260.486L280.1 213.37L207.26 178.667Z" fill="#001C18"/>
<path d="M111.822 242.864L115.598 248.309C115.598 248.309 121.24 243.588 128.24 245.851C135.24 248.115 141.539 252.182 150.959 247.651C151.508 243.968 150.777 240.209 148.889 237C148.889 237 125.085 234.469 124.588 234.566C124.09 234.662 111.822 242.864 111.822 242.864Z" fill="#001C18"/>
<path d="M115.543 236.324L111.822 242.864C132.428 235.28 133.11 244.85 145.713 243.823C134.622 254.025 126.984 276.583 114.926 282.044C105.11 286.498 86.8614 295.209 80.4295 298.29L66.3072 323.287L324.895 181.215L318.44 108.765L115.543 236.324Z" fill="#004B40"/>
<path d="M206.949 174.46L112.529 227.578L181.198 260.355L187.314 256.811L206.949 174.46Z" fill="#001C18"/>
<path d="M206.949 174.46L119.137 223.865L187.314 256.811L206.949 174.46Z" fill="#001C18"/>
<path d="M50.6675 185.776C50.6675 185.776 168.989 245.224 173.335 247.261C177.681 249.297 186.454 252.62 197.944 246.427C209.433 240.235 320.404 179.134 320.404 179.134L315.017 105.833L313.877 104.071L203.604 163.124L101.846 115.052L50.2568 183.663L50.6675 185.776Z" fill="#001C18"/>
<path d="M50.2568 183.663C50.2568 183.663 168.578 243.111 172.926 245.157C177.274 247.202 186.043 250.507 197.535 244.323C209.026 238.139 318.452 177.947 318.452 177.947L313.885 104.115L203.185 160.967L101.428 112.904L50.2568 183.663Z" fill="#87D1A4"/>
<path d="M106.183 110.566L53.3455 182.446L171.667 241.895C171.667 241.895 176.78 238.183 180.761 237.409C184.742 236.635 194.921 242.811 194.921 242.811L313.075 177.18L309.267 104.034L297.497 101.329L205.178 156.258L109.981 109.828L106.183 110.566Z" fill="#EFE8C5"/>
<path d="M299.721 101.767C299.88 107.806 299.957 113.843 300.026 119.882L300.111 137.986L300.013 156.126L299.903 165.207L299.695 174.254L299.508 165.23L299.4 156.19L299.306 138.088L299.404 119.949C299.467 113.839 299.545 107.808 299.721 101.767Z" fill="#FFD1A3"/>
<path d="M301.442 102.465C301.689 108.397 301.933 114.311 302.054 120.249L302.441 138.041L302.646 155.831L302.682 164.731L302.601 173.634L302.258 164.74L301.997 155.849L301.621 138.019L301.424 120.227C301.392 114.326 301.372 108.395 301.442 102.465Z" fill="#FFD1A3"/>
<path d="M303.625 102.974C303.935 108.903 304.119 114.838 304.364 120.761L304.92 138.537L305.22 156.346L305.318 165.242L305.336 174.145L304.922 165.255L304.588 156.36L304.067 138.576L303.743 120.782C303.658 114.845 303.6 108.904 303.625 102.974Z" fill="#FFD1A3"/>
<path d="M305.745 103.441C306.098 109.361 306.372 115.288 306.626 121.209L307.29 138.983L307.756 156.759L307.925 165.65L308.013 174.539L307.528 165.655L307.133 156.771L306.468 138.997L305.994 121.223C305.841 115.309 305.765 109.371 305.745 103.441Z" fill="#FFD1A3"/>
<path d="M307.842 103.975C308.253 109.957 308.575 115.947 308.87 121.896L309.689 139.857L310.324 157.854L310.581 166.865L310.75 175.892L310.188 166.941L309.713 157.973L308.938 140.003L308.303 122.006C308.072 115.926 307.911 109.969 307.842 103.975Z" fill="#FFD1A3"/>
<path d="M63.1928 177.406C63.1928 177.406 89.6866 189.534 111.47 196.725C133.253 203.916 175.461 224.034 180.761 237.364C190.28 223.083 202.314 204.68 230.051 196.172C257.789 187.663 292.138 177.236 296.402 173.489C296.474 160.99 297.555 101.255 297.555 101.255C288.299 104.953 278.837 108.114 269.216 110.722C254.376 114.64 209.553 133.554 205.222 156.25C195.128 140.725 183.157 132.651 161.99 127.606C140.824 122.56 109.981 109.828 109.981 109.828L63.1928 177.406Z" fill="#FBF9EF"/>
<path d="M180.782 237.378C190.28 223.083 202.314 204.68 230.051 196.172C257.789 187.663 292.138 177.236 296.402 173.489C296.473 160.991 297.555 101.255 297.555 101.255C288.299 104.953 278.837 108.114 269.216 110.722C254.376 114.64 209.553 133.554 205.222 156.25L180.782 237.378Z" fill="#FBF9EF"/>
<path d="M250.541 192.606C199.146 213.695 180.782 237.378 180.782 237.378C184.789 236.599 194.942 242.78 194.942 242.78L313.096 177.148C313.096 177.148 301.737 174.645 296.366 173.533C290.893 178.239 279.683 180.463 250.541 192.606Z" fill="#FBF9EF"/>
<path d="M140.974 204.952C121.664 196.637 63.1927 177.406 63.1927 177.406L53.3001 182.446L171.621 241.895C171.621 241.895 176.735 238.183 180.716 237.409C180.373 224.556 160.276 213.268 140.974 204.952Z" fill="#FBF9EF"/>
<path d="M140.974 204.952C121.664 196.637 63.1927 177.406 63.1927 177.406C63.1927 177.406 140.024 209.712 149.782 213.858C159.539 218.005 178.661 229.681 180.782 237.378C180.373 224.555 160.276 213.268 140.974 204.952Z" fill="#FCCE98"/>
<path d="M62.6962 180.212C62.6962 180.212 162.38 225.163 180.782 237.378C166.633 224.527 94.1828 191.224 62.6962 180.212Z" fill="#FCCE98"/>
<path d="M59.8239 180.77L74.4001 187.613L88.9462 194.535L117.98 208.497L146.921 222.632L161.372 229.762L175.773 236.965L161.197 230.122L146.651 223.201L117.617 209.238L88.6745 195.095L74.2255 187.973L59.8239 180.77Z" fill="#FCCE98"/>
<path d="M184.789 236.599C188.952 233.171 193.224 229.886 197.506 226.607C201.789 223.328 206.172 220.193 210.587 217.088C212.794 215.527 215.015 213.998 217.273 212.518C219.531 211.037 221.793 209.573 224.155 208.208C228.882 205.541 233.765 203.205 238.671 200.947C243.578 198.689 248.572 196.649 253.556 194.602C258.54 192.555 263.524 190.508 268.553 188.552C273.581 186.596 278.544 184.626 283.584 182.586C288.614 180.671 293.536 178.483 298.328 176.032C296.039 177.467 293.664 178.761 291.217 179.906C288.793 181.093 286.336 182.205 283.89 183.324C278.951 185.507 273.995 187.603 269.033 189.718C259.114 193.92 249.129 197.972 239.351 202.437C234.45 204.631 229.574 206.91 224.905 209.503C222.585 210.806 220.303 212.21 218.047 213.699L211.29 218.093C206.804 221.067 202.369 224.122 197.971 227.223C193.572 230.325 189.172 233.464 184.789 236.599Z" fill="#FCCE98"/>
<path d="M189.115 236.9C197.753 230.751 206.643 224.982 215.786 219.593C220.341 216.895 224.971 214.301 229.675 211.81C232.004 210.551 234.386 209.382 236.752 208.179C239.119 206.976 241.53 205.864 243.932 204.753C253.541 200.304 263.098 195.728 272.631 191.12C277.403 188.822 282.159 186.49 286.9 184.125C289.271 182.948 291.643 181.771 293.989 180.554C296.334 179.337 298.699 178.126 300.97 176.76C291.897 182.238 282.367 186.909 272.912 191.682C263.457 196.455 253.879 200.972 244.276 205.493C234.634 209.868 225.256 214.853 216.116 220.127C211.529 222.758 206.988 225.48 202.491 228.293C197.969 231.083 193.504 233.936 189.115 236.9Z" fill="#FCCE98"/>
<path d="M177.289 220.761L176.196 219.469C172.557 215.293 157.576 206.318 142.966 200.56C129.002 195.048 87.6755 178.256 87.2543 178.093L86.2624 177.652L123.649 120.064L124.488 120.417C124.838 120.539 159.432 132.389 173.145 137.959C186.857 143.529 198.757 154.036 198.879 154.148L199.713 155.083L199.626 155.335C199.507 155.702 187.403 191.877 177.53 220.134L177.289 220.761ZM88.018 177.501C92.5954 179.329 130.098 194.581 143.259 199.787C156.421 204.993 171.562 213.53 176.346 218.425C185.726 191.542 197.022 157.834 198.121 154.54C196.51 153.15 185.483 143.823 172.832 138.681C159.828 133.399 127.997 122.435 124.517 121.263L88.018 177.501Z" fill="#004B40"/>
<path d="M190.761 217.771L189.246 220.049L208.866 152.814L208.91 152.806C208.993 152.672 217.48 139.425 228.981 132.496C246.436 122.498 277.708 113.113 278.021 112.998L280.084 112.379L280.022 112.989L273.362 172.976L273.334 173.253L271.622 173.767C202.153 192.154 190.903 217.526 190.761 217.771ZM209.662 153.176L191.733 214.755C196.69 207.631 214.955 188.007 271.181 173.037C272.958 157.054 277.148 119.228 277.735 113.95C273.33 115.295 245.501 123.985 229.464 133.163C218.441 139.754 210.218 152.261 209.662 153.176Z" fill="#004B40"/>
</svg>
